<svg width="40" height="40" viewBox="0 0 40 40" fill="none" xmlns="http://www.w3.org/2000/svg">
<rect width="40" height="40" rx="8" fill="url(#paint0_linear_130_1328)"/>
<path d="M21.5833 21.0417L19.5 22.6021L13.6667 18.4021C11.9167 17.2083 11.25 15.6042 11.25 13.8333C11.25 12.0625 11.9167 10.4639 13.6667 9.26042L15.75 7.5L17.8333 10.0823L16.1667 11.5C15.5833 11.9167 15.3333 12.4583 15.3333 13.0937C15.3333 13.7292 15.5833 14.2708 16.1667 14.7187L19.0833 17.1458L21.5833 19.3194L24.0833 17.1458L26.9167 14.7187C27.4167 14.2708 27.6667 13.7292 27.6667 13.0937C27.6667 12.4583 27.4167 11.9167 26.9167 11.5L25.25 10.0823L27.3333 7.5L29.5 9.26042C31.0833 10.4639 31.75 12.0625 31.75 13.8333C31.75 15.6042 31.0833 17.2083 29.5 18.4021L23.6667 22.6021L21.5833 21.0417Z" fill="#D9D8D7"/>
<defs>
<linearGradient id="paint0_linear_130_1328" x1="20" y1="0" x2="20" y2="40" gradientUnits="userSpaceOnUse">
<stop stop-color="#FFFFFF"/>
<stop offset="1" stop-color="#E6E6E6"/>
</linearGradient>
</defs>
</svg>
